<svg xmlns="http://www.w3.org/2000/svg" xml:space="preserve" style="enable-background:new 0 0 122.88 70.36" viewBox="0 0 122.88 70.36"><path d="M97.85 14.17c-.02.19-.08.37-.17.55-.1.42-.15.9-.15 1.43 0 .05.01.1.01.15v34.74c.44 1.09.98 1.91 1.63 2.42.6.48 1.34.71 2.24.67.06-.01.13-.01.19-.01H111.64c1.55.08 2.67-.34 3.42-1.2.85-.98 1.34-2.55 1.51-4.66v-.03l3.03-31.34c0-.05 0-.1.01-.15.21-1.78-.18-2.94-1.06-3.62-1.01-.78-2.68-1.1-4.85-1.1-.05 0-.1.01-.15.01h-11.22v-.01c-1.71 0-2.97.34-3.74 1.04-.32.29-.56.66-.74 1.11zM86.87 52.6c-.24-.23-.41-.53-.48-.86l-16-28.8c-1.78-2.97-3.38-3.04-4.93-2.12-1.1.65-2.26 1.71-3.42 2.77-.7.64-1.4 1.28-1.99 1.77l-2.75 2.27-.02.01c-2 1.61-4.26 2.48-6.4 2.65-1.41.12-2.77-.06-4.01-.53-1.27-.48-2.39-1.25-3.23-2.3-.91-1.13-1.51-2.57-1.65-4.27H42c-.03-.41.09-.82.37-1.16l8.74-10.4c-1.84-.03-3.47.22-5 .7-2.33.73-4.51 1.99-6.89 3.62-.27.21-.62.34-.99.34H28.16v19.03l.04 12.17h5.86c.56 0 1.1.29 1.39.81l7.28 12.69c1.06 1.85 2 3.45 3.17 4.5 1.1.99 2.54 1.6 4.76 1.66.83.02 1.63-.12 2.38-.43.46-.19.92-.45 1.37-.78l-4.72-8.82a1.59 1.59 0 0 1 .66-2.16 1.59 1.59 0 0 1 2.16.66l5.13 9.59c1.91.97 3.64 1.27 5.19.94 1.42-.31 2.76-1.16 4.02-2.54l-7.39-11.6c-.47-.74-.26-1.73.49-2.21.74-.47 1.73-.26 2.21.49l7.78 12.22c1.37.56 2.68.68 3.93.34 1.19-.33 2.39-1.09 3.58-2.33L70.4 47.24c-.42-.78-.12-1.76.67-2.17.78-.42 1.76-.12 2.17.67l7.3 13.74c.95.55 2.05.69 3.1.52.92-.15 1.81-.55 2.54-1.12.7-.56 1.25-1.28 1.51-2.1.29-.89.26-1.93-.21-3.06l-.61-1.12zm2.12-2.78h5.34V16.3c0-.04 0-.09.01-.13 0-.52.03-1.02.1-1.49L89 11.07l-.09-.06c-.71-.47-1.56-1.07-2.41-1.67-3.09-2.16-6.26-4.39-9.69-5.29a26.41 26.41 0 0 0-6.17-.85c-1.91-.04-3.85.14-5.68.62-1.09.28-2.15.67-3.13 1.19-.87.46-1.68 1.02-2.4 1.7l-3.64 4.33c-.11.22-.27.4-.46.55L45.29 23.55c.15.76.45 1.4.86 1.92.48.59 1.12 1.03 1.85 1.31.78.29 1.68.4 2.62.32 1.53-.13 3.17-.76 4.64-1.94l2.75-2.27c.7-.58 1.29-1.12 1.88-1.65 1.29-1.18 2.57-2.35 3.93-3.16 3.13-1.87 6.25-1.93 9.33 3.24l.03.05 15.81 28.45zm5.94 3.21h-4.27c.58 1.69.55 3.29.09 4.71-.47 1.46-1.39 2.7-2.57 3.64a8.82 8.82 0 0 1-4.02 1.78c-1.43.24-2.93.11-4.33-.47-1.62 1.69-3.33 2.76-5.11 3.25-1.79.49-3.6.39-5.43-.25-1.74 1.93-3.66 3.14-5.78 3.59-2.16.47-4.45.14-6.88-1-.76.59-1.55 1.06-2.38 1.4-1.17.49-2.4.71-3.69.67-3.08-.09-5.15-1-6.8-2.48-1.58-1.41-2.63-3.21-3.83-5.29L33.12 50.7h-5.28c-.31 1.53-.84 2.83-1.64 3.87-1.35 1.74-3.32 2.66-6.06 2.6H11c-2.28.37-4.23-.19-5.76-1.96-1.36-1.57-2.28-4.12-2.68-7.86-.01-.04-.01-.09-.02-.14L.16 17.71c-.47-3.18.05-5.43 1.33-6.97 1.29-1.55 3.24-2.25 5.63-2.36.07-.01.13-.01.2-.01h12.19v.01c2.3-.03 4.28.36 5.78 1.33 1.21.78 2.08 1.88 2.52 3.38h9.93c2.5-1.68 4.83-3 7.41-3.81 2.54-.79 5.25-1.07 8.5-.68L57 4.64c.06-.08.12-.15.2-.22.95-.9 2.01-1.64 3.15-2.24 1.2-.63 2.48-1.11 3.82-1.46C66.29.17 68.52-.04 70.7 0c2.47.05 4.87.41 6.94.95C81.6 2 85.02 4.39 88.34 6.72c.74.52 1.48 1.04 2.36 1.62l.09.06 4.82 3.22c.24-.34.52-.65.84-.93 1.38-1.24 3.35-1.85 5.89-1.85v-.01h11.22c.04 0 .09 0 .13.01 2.87-.01 5.21.51 6.83 1.76 1.8 1.39 2.65 3.5 2.29 6.53 0 .03-.01.05-.01.08l-3.03 31.31c-.22 2.8-.97 4.99-2.29 6.51-1.41 1.62-3.36 2.42-5.92 2.31h-9.97c-1.72.09-3.19-.38-4.42-1.36-.9-.73-1.65-1.71-2.24-2.95zM14 40.86c1.2 0 2.17.97 2.17 2.17S15.2 45.2 14 45.2s-2.17-.97-2.17-2.17.97-2.17 2.17-2.17zm94.45 0c1.2 0 2.17.97 2.17 2.17s-.97 2.17-2.17 2.17-2.17-.97-2.17-2.17.97-2.17 2.17-2.17zm-83.5-9.24-.06-16.93v-.1c-.17-1.06-.63-1.77-1.31-2.21-.93-.6-2.32-.83-4.03-.81h-.02v.01H7.27c-1.51.07-2.66.43-3.31 1.21-.7.83-.94 2.27-.61 4.5.01.05.01.09.01.14l2.38 29.53v.05c.32 3.06.98 5.02 1.91 6.1.74.86 1.75 1.1 2.96.88.09-.02.19-.03.28-.03v-.01h9.15c.06 0 .12 0 .17.01 1.62.03 2.74-.45 3.44-1.36.82-1.06 1.22-2.72 1.28-4.86h-.01V31.62h.03zm48.23-10.26z"/></svg>